<?xml version="1.0" standalone="no"?>
<!DOCTYPE svg PUBLIC "-//W3C//DTD SVG 20010904//EN"
 "http://www.w3.org/TR/2001/REC-SVG-20010904/DTD/svg10.dtd">
<svg version="1.0" xmlns="http://www.w3.org/2000/svg" width="571.000000pt" height="131.000000pt" viewBox="0 0 571.000000 131.000000" preserveAspectRatio="xMidYMid meet">

<g transform="translate(0.000000,131.000000) scale(0.100000,-0.100000)" fill="#000000" stroke="none">
<path d="M140 660 l0 -510 615 0 615 0 0 510 0 510 -615 0 -615 0 0 -510z
m698 291 c20 -10 47 -32 59 -49 18 -24 31 -30 73 -34 43 -4 58 -12 88 -41 31
-32 36 -43 39 -94 3 -46 0 -65 -16 -91 -42 -65 -121 -89 -195 -58 -27 11 -36
11 -57 0 -34 -19 -105 -17 -139 3 -27 16 -31 16 -69 -2 -80 -36 -174 -1 -206
77 -19 50 -19 74 4 124 25 55 76 86 141 86 44 -1 52 3 71 30 48 67 133 87 207
49z m-106 -404 c36 -8 56 -8 87 3 32 10 47 11 66 2 14 -7 35 -12 45 -12 18 0
20 -7 20 -95 l0 -95 -190 0 -190 0 0 95 0 96 30 6 c17 3 33 10 36 15 4 5 16 7
28 3 11 -4 42 -12 68 -18z"></path>
<path d="M5323 1110 c-50 -30 -67 -72 -73 -185 l-5 -100 -42 -3 c-29 -2 -43
-8 -43 -18 0 -10 12 -14 45 -14 l45 0 0 -265 c0 -252 -1 -266 -20 -285 -34
-34 -24 -40 60 -40 85 0 99 9 60 43 -19 16 -20 29 -20 282 l0 265 55 0 c41 0
55 4 55 14 0 11 -15 16 -52 18 l-53 3 1 113 c1 85 6 118 18 137 19 28 47 32
66 10 11 -13 9 -20 -9 -38 -37 -40 -21 -97 28 -97 54 0 76 52 46 110 -35 67
-101 88 -162 50z"></path>
<path d="M4320 1106 c0 -7 7 -19 15 -26 13 -11 15 -70 15 -420 0 -350 -2 -409
-15 -420 -8 -7 -15 -19 -15 -26 0 -11 18 -14 75 -14 61 0 75 3 75 15 0 9 -7
18 -15 21 -13 5 -15 42 -15 243 0 205 2 241 18 271 30 62 106 77 134 27 9 -16
14 -93 16 -273 3 -218 1 -252 -12 -263 -36 -30 -19 -41 59 -41 59 0 75 3 75
15 0 7 -6 18 -14 22 -11 6 -15 56 -18 248 -4 264 -8 282 -69 325 -42 30 -120
31 -160 1 l-29 -22 0 166 0 165 -60 0 c-44 0 -60 -4 -60 -14z"></path>
<path d="M1630 1104 c0 -4 8 -13 18 -20 16 -11 17 -44 17 -424 0 -381 -1 -412
-17 -421 -10 -6 -18 -17 -18 -24 0 -12 16 -15 75 -15 57 0 75 3 75 14 0 7 -7
19 -15 26 -13 11 -15 72 -15 441 l0 429 -60 0 c-33 0 -60 -3 -60 -6z"></path>
<path d="M2090 1102 c0 -4 9 -13 20 -20 19 -12 20 -23 20 -422 0 -399 0 -410
-20 -420 -11 -6 -20 -17 -20 -25 0 -12 16 -15 80 -15 85 0 99 9 60 43 -16 13
-20 29 -20 74 1 47 7 69 34 116 l33 57 36 -98 c41 -109 44 -134 22 -152 -8 -7
-15 -19 -15 -26 0 -11 19 -14 85 -14 94 0 105 9 63 52 -14 14 -45 88 -77 184
l-55 160 52 90 c32 57 61 95 77 102 14 6 25 18 25 27 0 12 -13 15 -65 15 -52
0 -65 -3 -65 -15 0 -9 7 -18 15 -21 8 -4 15 -15 15 -25 0 -21 -161 -318 -172
-319 -5 0 -8 137 -8 305 0 292 1 306 20 325 11 11 20 22 20 25 0 3 -36 5 -80
5 -44 0 -80 -3 -80 -8z"></path>
<path d="M1907 1002 c-22 -24 -21 -55 1 -75 23 -21 41 -21 70 -1 27 18 29 55
4 77 -24 22 -55 21 -75 -1z"></path>
<path d="M2691 829 c-44 -9 -81 -38 -106 -80 -19 -31 -20 -49 -17 -233 3 -146
7 -207 17 -227 33 -62 123 -107 188 -93 79 17 114 55 124 134 5 42 3 50 -11
50 -11 0 -16 -9 -16 -30 0 -61 -42 -114 -100 -125 -88 -16 -120 32 -120 180
l0 95 125 0 125 0 0 103 c0 78 -5 112 -19 143 -30 66 -110 101 -190 83z m88
-48 c25 -25 43 -113 39 -188 l-3 -58 -82 -3 -83 -3 0 90 c0 92 9 133 37 163
21 24 68 23 92 -1z"></path>
<path d="M3325 830 c-94 -29 -136 -182 -56 -203 26 -6 65 14 69 37 6 30 -7 64
-28 71 -27 8 -25 40 2 59 59 42 153 -1 164 -75 7 -44 -21 -81 -104 -135 -127
-83 -166 -141 -160 -239 3 -49 10 -70 31 -98 50 -66 142 -71 199 -12 29 31 32
31 46 1 15 -34 73 -52 113 -36 26 11 49 37 49 54 0 14 -23 4 -39 -15 -15 -18
-21 -20 -39 -10 -20 11 -21 18 -24 254 l-3 244 -28 36 c-46 60 -125 87 -192
67z m130 -527 c-3 -13 -17 -30 -31 -39 -21 -14 -31 -15 -65 -5 -31 10 -44 20
-55 46 -33 80 -11 142 79 229 l72 68 3 -138 c1 -77 0 -149 -3 -161z"></path>
<path d="M4055 835 c-5 -2 -22 -6 -37 -9 -39 -9 -88 -54 -109 -101 -16 -34
-19 -67 -19 -216 0 -164 2 -179 23 -220 31 -61 111 -103 179 -95 93 10 148 64
148 145 0 51 -15 54 -25 4 -16 -87 -70 -130 -149 -120 -79 11 -96 60 -96 285
0 190 10 242 53 278 26 22 37 25 70 20 74 -12 111 -57 123 -150 12 -82 24 -49
24 64 0 91 -3 110 -15 110 -8 0 -15 -7 -15 -15 0 -19 -13 -19 -48 -1 -29 14
-90 27 -107 21z"></path>
<path d="M4901 830 c-44 -10 -81 -39 -106 -81 -18 -31 -20 -50 -18 -230 1
-215 5 -234 63 -283 83 -70 211 -51 251 37 22 50 25 107 5 107 -8 0 -15 -16
-19 -42 -7 -55 -35 -90 -85 -108 -92 -32 -131 17 -135 166 l-2 99 128 3 127 3
0 103 c0 88 -3 109 -23 146 -34 64 -110 97 -186 80z m88 -49 c24 -24 35 -74
35 -171 l1 -75 -83 -3 -84 -3 4 110 c3 100 5 112 27 135 29 31 73 34 100 7z"></path>
<path d="M1870 816 c0 -7 7 -19 15 -26 13 -10 15 -54 15 -275 0 -221 -2 -265
-15 -275 -8 -7 -15 -19 -15 -26 0 -11 18 -14 75 -14 61 0 75 3 75 15 0 9 -7
18 -15 21 -13 5 -15 48 -15 300 l0 294 -60 0 c-44 0 -60 -4 -60 -14z"></path>
</g>
</svg>
