<?xml version="1.0" standalone="no"?>
<!DOCTYPE svg PUBLIC "-//W3C//DTD SVG 20010904//EN"
 "http://www.w3.org/TR/2001/REC-SVG-20010904/DTD/svg10.dtd">
<svg version="1.0" xmlns="http://www.w3.org/2000/svg" width="134.000000pt" height="135.000000pt" viewBox="0 0 134.000000 135.000000" preserveAspectRatio="xMidYMid meet">

<g transform="translate(0.000000,135.000000) scale(0.100000,-0.100000)" fill="#000000" stroke="none">
<path d="M580 1208 c0 -5 -11 -8 -24 -8 -13 0 -43 -9 -67 -19 -24 -11 -47 -17
-51 -15 -4 3 -8 1 -8 -3 0 -5 -20 -15 -45 -22 -25 -7 -45 -17 -45 -21 0 -4
-16 -17 -35 -28 -35 -21 -135 -146 -135 -170 0 -7 -5 -10 -12 -6 -7 4 -8 3 -4
-4 4 -6 -3 -40 -14 -74 -55 -162 -21 -345 91 -493 65 -86 198 -169 306 -189
11 -3 36 -9 54 -14 32 -8 51 -8 127 2 20 3 32 1 32 -7 0 -8 3 -8 8 -2 4 6 25
16 47 24 83 28 168 64 184 78 9 7 31 25 48 39 18 14 52 55 75 90 23 35 46 64
51 64 4 0 6 4 2 10 -3 5 4 40 17 77 26 83 29 221 6 299 -44 142 -140 260 -264
323 -64 32 -144 63 -144 56 0 -3 -12 0 -27 6 -32 13 -173 18 -173 7z m142
-228 c21 -6 51 -27 73 -51 31 -35 43 -42 80 -43 80 -3 145 -75 145 -159 0
-107 -117 -180 -220 -137 -24 10 -36 10 -60 0 -42 -17 -114 -14 -146 6 -25 17
-28 17 -62 -2 -68 -36 -158 -15 -204 48 -32 46 -32 130 1 177 31 44 100 74
149 67 34 -5 39 -3 57 27 21 33 94 77 130 77 11 0 36 -5 57 -10z m-38 -426
c83 8 105 8 149 0 l37 -6 0 -99 0 -99 -200 0 -200 0 0 98 0 97 48 15 c40 14
51 14 76 2 19 -9 47 -12 90 -8z"></path>
</g>
</svg>
