<svg version="1.0" xmlns="http://www.w3.org/2000/svg" width="178.667" height="180" viewBox="0 0 134 135"><path d="M58 14.2c0 .5-1.1.8-2.4.8-1.3 0-4.3.9-6.7 1.9-2.4 1.1-4.7 1.7-5.1 1.5-.4-.3-.8-.1-.8.3 0 .5-2 1.5-4.5 2.2-2.5.7-4.5 1.7-4.5 2.1 0 .4-1.6 1.7-3.5 2.8C27 27.9 17 40.4 17 42.8c0 .7-.5 1-1.2.6s-.8-.3-.4.4c.4.6-.3 4-1.4 7.4-5.5 16.2-2.1 34.5 9.1 49.3 6.5 8.6 19.8 16.9 30.6 18.9 1.1.3 3.6.9 5.4 1.4 3.2.8 5.1.8 12.7-.2 2-.3 3.2-.1 3.2.7 0 .8.3.8.8.2.4-.6 2.5-1.6 4.7-2.4 8.3-2.8 16.8-6.4 18.4-7.8.9-.7 3.1-2.5 4.8-3.9 1.8-1.4 5.2-5.5 7.5-9s4.6-6.4 5.1-6.4c.4 0 .6-.4.2-1-.3-.5.4-4 1.7-7.7 2.6-8.3 2.9-22.1.6-29.9-4.4-14.2-14-26-26.4-32.3C86 17.9 78 14.8 78 15.5c0 .3-1.2 0-2.7-.6-3.2-1.3-17.3-1.8-17.3-.7zM72.2 37c2.1.6 5.1 2.7 7.3 5.1 3.1 3.5 4.3 4.2 8 4.3 8 .3 14.5 7.5 14.5 15.9 0 10.7-11.7 18-22 13.7-2.4-1-3.6-1-6 0-4.2 1.7-11.4 1.4-14.6-.6-2.5-1.7-2.8-1.7-6.2.2-6.8 3.6-15.8 1.5-20.4-4.8-3.2-4.6-3.2-13 .1-17.7 3.1-4.4 10-7.4 14.9-6.7 3.4.5 3.9.3 5.7-2.7 2.1-3.3 9.4-7.7 13-7.7 1.1 0 3.6.5 5.7 1zm-3.8 42.6c8.3-.8 10.5-.8 14.9 0l3.7.6V100H47V80.5l4.8-1.5c4-1.4 5.1-1.4 7.6-.2 1.9.9 4.7 1.2 9 .8z"/></svg>